/* XPM */
static char *bitmap8[]={
"16 16 2 1",
"# c black",
". c none",
/* pixels */
".......##.......",
".......##.......",
".###.######.###.",
".#.#..####..#.#.",
".#.#...##...###.",
".#.#........#.#.",
".#.##########.#.",
".#............#.",
".#............#.",
".#............#.",
".#..########..#.",
".#..#####..#..#.",
".#..#####..#..#.",
".#..#####..#..#.",
".##############.",
"................"};
