/* XPM */
static char *bitmap9[] = {
"16 16 2 1",
"  c black",
"& c none",
/* pixels */
"&&&&&&&&&&&&&&&&",
"&   &  &&&&&   &",
"& & &   &&&& & &",
"&   &&   &&&   &",
"& & &&&   && & &",
"&   &&&&   &   &",
"& & &&&&&  & & &",
"&   &      &   &",
"& & &      & & &",
"&   &  &&&&&   &",
"& & &   &&&& & &",
"&   &&   &&&   &",
"& & &&&   && & &",
"&   &&&&   &   &",
"& & &&&&&  & & &",
"&&&&&&&&&&&&&&&&"};
