/* XPM */
static char *bitmap5[] = {
/* columns rows colors chars-per-pixel */
"8 8 2 1",
"  c green",
". c None",
/* pixels */
"........",
"....... ",
"......  ",
".....  .",
" ...  ..",
"  .  ...",
".   ....",
"........"
};
