/* XPM */
static char *SampleViewer[] = {
/* columns rows colors chars-per-pixel */
"16 16 31 1",
"  c black",
". c #080800000000",
"X c #181800000000",
"o c #202000000000",
"O c #000040400000",
"+ c #000070700000",
"@ c #484800000000",
"# c #404010101010",
"$ c #606000000000",
"% c #0000A0A00000",
"& c #0000BFBF0000",
"* c #3030B0B03030",
"= c #0000CFCF0000",
"- c #0000DFDF0000",
"; c #1010CFCF1010",
": c #0000EFEF0000",
"> c #4040A0A04040",
", c #7070B8B87070",
"< c #808030303030",
"1 c #A0A040404040",
"2 c #B8B870707070",
"3 c #BFBF8F8F8F8F",
"4 c #8F8FCFCF8F8F",
"5 c #BFBFDFDFBFBF",
"6 c #DFDFBFBFBFBF",
"7 c #CFCFE7E7CFCF",
"8 c #E7E7CFCFCFCF",
"9 c #EFEFF7F7EFEF",
"0 c #F7F7EFEFEFEF",
"q c gray100",
"w c None",
/* pixels */
"wwwwwwwwwwwwwwww",
"wwwwwwwwwwwwwwww",
"wwwwwwwwwwwwwwww",
"wwwww@$$$$$Xwwww",
"wwww@366666<Xwww",
"www@30,>>>78<Xww",
"ww@30,;---*78<Xw",
"w@30q>-+O=%5q8<X",
"w$6qq>-O &%5qq1o",
"wX<8q>-=&:%5q2#.",
"wwX<87*%%%492#.w",
"wwwX<8755592#.ww",
"wwwwX<11111#.www",
"wwwwwXooooo.wwww",
"wwwwwwwwwwwwwwww",
"wwwwwwwwwwwwwwww"
};
