/* XPM */
static char * bitmap10[] = {
"16 16 2 1",
"  c black",
"& c none",
"&&&&&&&  &&&&&&&",
"&&&&&      &&&&&",
"&&&&&&    &&&&&&",
"&&&&&&&  &&&&&&&",
"&&&&&&&&&&&&&&&&",
"& &&& &&&  &&& &",
"& &&& && && && &",
"& &&& && && && &",
"& &&& && && && &",
"& &&& && && && &",
"& &&& &&&  &&& &",
"&&&&&&&&&&&&&&&&",
"&&&&&&&  &&&&&&&",
"&&&&&&    &&&&&&",
"&&&&&      &&&&&",
"&&&&&&&  &&&&&&&"};
