/* XPM */
static char *bitmap7[] = {
/* columns rows colors chars-per-pixel */
"16 16 2 1",
"  c black",
". c none",
/* pixels */
"................",
"................",
".. ...    ... ..",
"... . .... . ...",
".... ...... ....",
"... . .... . ...",
".. ...    ... ..",
".. ... .. ... ..",
".. ... .. ... ..",
".. ...    ... ..",
"... . .... . ...",
".... ...... ....",
"... . .... . ...",
".. ...    ... ..",
"................",
"................"
};
